HIERARCHY
ROOT ZeroOut_JNT
{
  OFFSET 0 0 0
  CHANNELS 6 Xposition Yposition Zposition Zrotation Xrotation Yrotation
  JOINT SpineFinal_1_JNT
  {
    OFFSET 1.09941 64.002 -42.9966
    CHANNELS 6 Xposition Yposition Zposition Zrotation Xrotation Yrotation
    JOINT l_legIKClavicle_Root_JNT
    {
      OFFSET -2.64853 -0.810668 10.7015
      CHANNELS 6 Xposition Yposition Zposition Zrotation Xrotation Yrotation
      JOINT l_legBlendRoot_JNT
      {
        OFFSET 16.1374 0 0
        CHANNELS 6 Xposition Yposition Zposition Zrotation Xrotation Yrotation
        JOINT l_legBlendMiddle_JNT
        {
          OFFSET 27.0969 0 0
          CHANNELS 6 Xposition Yposition Zposition Zrotation Xrotation Yrotation
          JOINT l_legBlendEnd_JNT
          {
            OFFSET 24.8414 0 0
            CHANNELS 6 Xposition Yposition Zposition Zrotation Xrotation Yrotation
            JOINT l_legBlendTip_JNT
            {
              OFFSET 6.77858 0 0
              CHANNELS 6 Xposition Yposition Zposition Zrotation Xrotation Yrotation
              End Site
              {
                OFFSET 0 0 0
              }
            }
          }
        }
      }
    }
    JOINT SpineFinal_2_JNT
    {
      OFFSET -19.9136 -1.49144 0.993757
      CHANNELS 6 Xposition Yposition Zposition Zrotation Xrotation Yrotation
      JOINT SpineFinal_3_JNT
      {
        OFFSET -19.2001 3.24201 2.0363
        CHANNELS 6 Xposition Yposition Zposition Zrotation Xrotation Yrotation
        JOINT SpineFinal_4_JNT
        {
          OFFSET -19.1272 6.18264 0.824529
          CHANNELS 6 Xposition Yposition Zposition Zrotation Xrotation Yrotation
          JOINT SpineFinal_5_JNT
          {
            OFFSET -18.1852 7.21578 -1.20318
            CHANNELS 6 Xposition Yposition Zposition Zrotation Xrotation Yrotation
            JOINT SpineFinal_6_JNT
            {
              OFFSET -19.144 8.35871 0
              CHANNELS 6 Xposition Yposition Zposition Zrotation Xrotation Yrotation
              JOINT SpineFinal_7_JNT
              {
                OFFSET -16.3943 7.24542 0
                CHANNELS 6 Xposition Yposition Zposition Zrotation Xrotation Yrotation
                JOINT SpineFinal_8_JNT
                {
                  OFFSET -19.3877 2.40349 0
                  CHANNELS 6 Xposition Yposition Zposition Zrotation Xrotation Yrotation
                  JOINT head_JNT
                  {
                    OFFSET -13.796 -11.6756 0
                    CHANNELS 6 Xposition Yposition Zposition Zrotation Xrotation Yrotation
                    JOINT l_hornRoot_JNT
                    {
                      OFFSET -15.825 14.8229 15.3879
                      CHANNELS 6 Xposition Yposition Zposition Zrotation Xrotation Yrotation
                      JOINT l_hornMid_JNT
                      {
                        OFFSET 6.55118 0 0
                        CHANNELS 6 Xposition Yposition Zposition Zrotation Xrotation Yrotation
                        JOINT l_hornEnd_JNT
                        {
                          OFFSET 6.73503 0 0
                          CHANNELS 6 Xposition Yposition Zposition Zrotation Xrotation Yrotation
                          End Site
                          {
                            OFFSET 0 0 0
                          }
                        }
                      }
                    }
                    JOINT headJend_JNT
                    {
                      OFFSET 1.34858 -27.5886 0
                      CHANNELS 6 Xposition Yposition Zposition Zrotation Xrotation Yrotation
                      End Site
                      {
                        OFFSET -0.885571 -8.63314 -0.143146
                      }
                    }
                    JOINT r_hornRoot_JNT
                    {
                      OFFSET -15.825 14.8229 -15.3879
                      CHANNELS 6 Xposition Yposition Zposition Zrotation Xrotation Yrotation
                      JOINT r_hornMid_JNT
                      {
                        OFFSET -2.40814 5.46468 -2.69372
                        CHANNELS 6 Xposition Yposition Zposition Zrotation Xrotation Yrotation
                        JOINT r_hornEnd_JNT
                        {
                          OFFSET -2.40922 6.0083 -1.85921
                          CHANNELS 6 Xposition Yposition Zposition Zrotation Xrotation Yrotation
                          End Site
                          {
                            OFFSET 0 0 0
                          }
                        }
                      }
                    }
                    JOINT m_upLip_JNT
                    {
                      OFFSET 4.72477 -9.87974 0
                      CHANNELS 6 Xposition Yposition Zposition Zrotation Xrotation Yrotation
                      JOINT l_lipUpRoot_JNT
                      {
                        OFFSET 2.68891 -0.690234 4.02874
                        CHANNELS 6 Xposition Yposition Zposition Zrotation Xrotation Yrotation
                        JOINT l_lipUpEnd_JNT
                        {
                          OFFSET 0 0 -14.9226
                          CHANNELS 6 Xposition Yposition Zposition Zrotation Xrotation Yrotation
                          End Site
                          {
                            OFFSET 0 0 0
                          }
                        }
                      }
                      JOINT m_upLipRoot_JNT
                      {
                        OFFSET 0 0 3.94939
                        CHANNELS 6 Xposition Yposition Zposition Zrotation Xrotation Yrotation
                        JOINT m_upLipEnd_JNT
                        {
                          OFFSET 0 0 15.0019
                          CHANNELS 6 Xposition Yposition Zposition Zrotation Xrotation Yrotation
                          End Site
                          {
                            OFFSET 0 0 0
                          }
                        }
                      }
                      JOINT r_lipUpRoot_JNT
                      {
                        OFFSET -2.689 -0.690236 4.02875
                        CHANNELS 6 Xposition Yposition Zposition Zrotation Xrotation Yrotation
                        JOINT r_lipUpEnd_JNT
                        {
                          OFFSET 9.35075e-005 -0.000392738 14.9226
                          CHANNELS 6 Xposition Yposition Zposition Zrotation Xrotation Yrotation
                          End Site
                          {
                            OFFSET 0 0 0
                          }
                        }
                      }
                    }
                    JOINT m_DnLip_JNT
                    {
                      OFFSET 6.0207 -9.81639 0
                      CHANNELS 6 Xposition Yposition Zposition Zrotation Xrotation Yrotation
                      JOINT l_lipDn_JNT
                      {
                        OFFSET 2.71301 -0.162748 3.99146
                        CHANNELS 6 Xposition Yposition Zposition Zrotation Xrotation Yrotation
                        JOINT l_lipEnd_JNT
                        {
                          OFFSET 0 0 -14.9599
                          CHANNELS 6 Xposition Yposition Zposition Zrotation Xrotation Yrotation
                          End Site
                          {
                            OFFSET 0 0 0
                          }
                        }
                      }
                      JOINT m_dnLip_JNT
                      {
                        OFFSET 0 -0.0431035 3.99141
                        CHANNELS 6 Xposition Yposition Zposition Zrotation Xrotation Yrotation
                        JOINT m_dnLipEnd_JNT
                        {
                          OFFSET 0 0 14.9599
                          CHANNELS 6 Xposition Yposition Zposition Zrotation Xrotation Yrotation
                          End Site
                          {
                            OFFSET 0 0 0
                          }
                        }
                      }
                      JOINT r_lipDn_JNT
                      {
                        OFFSET -2.71301 -0.162761 3.99141
                        CHANNELS 6 Xposition Yposition Zposition Zrotation Xrotation Yrotation
                        JOINT r_lipDnEnd_JNT
                        {
                          OFFSET 0 0 14.9599
                          CHANNELS 6 Xposition Yposition Zposition Zrotation Xrotation Yrotation
                          End Site
                          {
                            OFFSET 0 0 0
                          }
                        }
                      }
                    }
                    JOINT l_lid_JNT
                    {
                      OFFSET -7.85698 -6.72885 9.63956
                      CHANNELS 6 Xposition Yposition Zposition Zrotation Xrotation Yrotation
                      End Site
                      {
                        OFFSET 0 0 0
                      }
                    }
                    JOINT r_lid_JNT
                    {
                      OFFSET -7.85684 -6.72882 -9.63956
                      CHANNELS 6 Xposition Yposition Zposition Zrotation Xrotation Yrotation
                      End Site
                      {
                        OFFSET 0 0 0
                      }
                    }
                  }
                }
              }
            }
            JOINT l_FwClavicleRoot_JNT
            {
              OFFSET -3.21476 -4.3187 6.08742
              CHANNELS 6 Xposition Yposition Zposition Zrotation Xrotation Yrotation
              JOINT l_FwLegBlendRoot_JNT
              {
                OFFSET 21.051 0 0
                CHANNELS 6 Xposition Yposition Zposition Zrotation Xrotation Yrotation
                JOINT l_FwLegBlendMiddle_JNT
                {
                  OFFSET 33.1145 0 0
                  CHANNELS 6 Xposition Yposition Zposition Zrotation Xrotation Yrotation
                  JOINT l_FwLegBlendTip_JNT
                  {
                    OFFSET 29.9221 0 0
                    CHANNELS 6 Xposition Yposition Zposition Zrotation Xrotation Yrotation
                    JOINT l_FwLegBlendEnd_JNT
                    {
                      OFFSET 9.62649 0 0
                      CHANNELS 6 Xposition Yposition Zposition Zrotation Xrotation Yrotation
                      End Site
                      {
                        OFFSET 0 0 0
                      }
                    }
                  }
                }
              }
            }
            JOINT r_FwClavicleRoot_JNT
            {
              OFFSET 1.57499 -4.64749 -6.47788
              CHANNELS 6 Xposition Yposition Zposition Zrotation Xrotation Yrotation
              JOINT r_FwLegBlendRoot_JNT
              {
                OFFSET 1.1653 -12.7157 -16.7361
                CHANNELS 6 Xposition Yposition Zposition Zrotation Xrotation Yrotation
                JOINT r_FwLegBlendMiddle_JNT
                {
                  OFFSET 16.2308 -5.97551 28.2387
                  CHANNELS 6 Xposition Yposition Zposition Zrotation Xrotation Yrotation
                  JOINT r_FwLegBlendTip_JNT
                  {
                    OFFSET 26.7017 -9.19239 -9.89204
                    CHANNELS 6 Xposition Yposition Zposition Zrotation Xrotation Yrotation
                    JOINT r_FwLegBlendEnd_JNT
                    {
                      OFFSET 4.44874 -7.74942 3.58114
                      CHANNELS 6 Xposition Yposition Zposition Zrotation Xrotation Yrotation
                      End Site
                      {
                        OFFSET 0 0 0
                      }
                    }
                  }
                }
              }
            }
          }
        }
      }
    }
    JOINT r_legIKClavicle_Root_JNT
    {
      OFFSET -4.94604 1.23737 -11.8565
      CHANNELS 6 Xposition Yposition Zposition Zrotation Xrotation Yrotation
      JOINT r_legBlendRoot_JNT
      {
        OFFSET 13.2848 -5.74129 -7.13912
        CHANNELS 6 Xposition Yposition Zposition Zrotation Xrotation Yrotation
        JOINT r_legBlendMiddle_JNT
        {
          OFFSET 14.815 16.9375 15.0957
          CHANNELS 6 Xposition Yposition Zposition Zrotation Xrotation Yrotation
          JOINT r_legBlendEnd_JNT
          {
            OFFSET 23.6904 -6.58016 -3.54465
            CHANNELS 6 Xposition Yposition Zposition Zrotation Xrotation Yrotation
            JOINT r_legBlendTip_JNT
            {
              OFFSET 1.47758 -6.16068 -2.41079
              CHANNELS 6 Xposition Yposition Zposition Zrotation Xrotation Yrotation
              End Site
              {
                OFFSET 0 0 0
              }
            }
          }
        }
      }
    }
    JOINT tailRoot_JNT
    {
      OFFSET 2.82533 14.5514 0
      CHANNELS 6 Xposition Yposition Zposition Zrotation Xrotation Yrotation
      JOINT tailMid_JNT
      {
        OFFSET 7.87756 0 0
        CHANNELS 6 Xposition Yposition Zposition Zrotation Xrotation Yrotation
        JOINT tailEnd_JNT
        {
          OFFSET 6.52588 0 0
          CHANNELS 6 Xposition Yposition Zposition Zrotation Xrotation Yrotation
          End Site
          {
            OFFSET 0 0 0
          }
        }
      }
    }
    JOINT l_shoulderBkRoot_JNT
    {
      OFFSET -9.30511 7.998 11.2048
      CHANNELS 6 Xposition Yposition Zposition Zrotation Xrotation Yrotation
      JOINT l_shoulderBkMid_JNT
      {
        OFFSET 0 2.004 0
        CHANNELS 6 Xposition Yposition Zposition Zrotation Xrotation Yrotation
        End Site
        {
          OFFSET 0 0 0
        }
      }
    }
    JOINT r_shoulderBkRoot_JNT
    {
      OFFSET -9.30514 7.99801 -11.2048
      CHANNELS 6 Xposition Yposition Zposition Zrotation Xrotation Yrotation
      JOINT r_shoulderBkMid_JNT
      {
        OFFSET 0 -3.9713 0
        CHANNELS 6 Xposition Yposition Zposition Zrotation Xrotation Yrotation
        End Site
        {
          OFFSET 0 0 0
        }
      }
    }
  }
}
MOTION
Frames:	3
Frame Time:	0.0416667
0 0 0 0 0 -0 0.0193875 59.8142 -43.0016 -0.503506 11.3898 90.1974 -4.47949 0.292675 9.59625 -60.7523 61.2999 -67.9539 16.1374 -1.06773e-006 1.63513e-006 -26.5502 10.8419 80.5413 27.0969 7.10543e-015 -2.13163e-014 5.02011e-015 2.23943e-015 -62.3384 24.8414 -1.06581e-014 2.84217e-014 -0.0591018 -0.044428 -46.9561 6.77858 -3.55271e-015 -1.77636e-014 1.94126e-019 -1.94126e-019 -0 -19.6235 0.0569323 0.138043 -0.203975 0.146308 2.69121 -19.4628 1.4791 0.667918 -1.44646 -0.184372 1.70926 -18.219 5.21915 -0.614679 -17.6832 0.753173 -3.28341 -17.3645 8.00996 -0.194186 -16.6851 0.56797 -1.01455 -19.144 8.35871 -2.57572e-014 -16.6153 -1.33966e-015 3.2042 -16.3943 7.24542 2.88658e-014 -23.8429 -0.0765665 -1.2921e-014 -19.3877 2.40349 -3.01981e-014 3.26212 7.55382e-015 -2.03278 -13.796 -11.6756 2.84217e-014 -12.9302 -5.96354e-016 -1.98785e-016 -15.825 14.8229 15.3879 90.9374 7.37471 -23.3328 6.55118 1.98952e-013 -7.10543e-015 -7.71367e-009 -7.59931 2.05853 6.73503 2.84217e-014 -4.61853e-014 1.59028e-015 -7.95139e-016 -0 1.34858 -27.5886 -1.42109e-014 92.7985 1.30204e-014 -1.68967e-014 -15.825 14.8229 -15.3879 -14.8222 2.85467 -6.13959 -2.40814 5.46468 -2.69372 -7.71367e-009 -7.59931 2.05853 -2.40922 6.0083 -1.85921 -1.2424e-017 -7.95139e-016 1.98474e-015 4.72477 -9.87974 8.88178e-016 92.7985 3.50417e-015 -90 4.96118 -0.690234 1.45871 180 7.01671e-015 180 -8.88178e-016 0 -14.9226 9.93923e-017 0 -3.97569e-016 2.22045e-015 2.84217e-014 3.94939 -9.93923e-017 -3.18055e-015 3.97569e-016 -8.88178e-016 0 15.0019 9.93923e-017 0 3.97569e-016 -4.16352 -0.485088 1.4795 -9.93923e-017 -3.18055e-015 3.97569e-016 9.35075e-005 -0.000392738 14.9226 9.93923e-017 0 3.97569e-016 6.0207 -9.81639 1.33227e-015 112.799 3.23426e-015 -90 3.38327 -0.728579 2.22495 -180 6.59355e-015 160 0 0 -14.9599 -1.59028e-015 -3.18055e-015 1.59028e-015 1.33227e-015 -0.0431035 3.99141 3.97569e-016 3.18055e-015 -0 0 0 14.9599 1.98785e-016 -3.18055e-015 1.98785e-016 -2.08724 0.559133 2.49549 2.84997e-015 3.18055e-015 -20 -3.55271e-015 0 14.9599 4.77083e-015 0 4.77083e-015 -7.85698 -6.72885 9.63956 34.106 19.9417 85.9622 -7.85684 -6.72882 -9.63956 -145.894 19.9417 85.9622 -2.95858 -4.57421 6.72564 25.5035 26.2631 -112.658 21.051 -8.53894e-006 6.25609e-006 129.891 -67.9595 -165.569 33.1145 8.3753e-007 -2.8019e-007 138.304 7.01671e-015 180 29.9221 -2.13163e-014 -3.55271e-015 4.26966 3.40765 1.28517 9.62649 1.42109e-014 3.55271e-015 29.859 -1.7467e-015 90 2.33258 -3.84553 -6.72564 -27.5977 9.37252 -17.983 1.16529 -12.7157 -16.7361 85.353 -52.2745 122.564 16.2308 -5.97551 28.2387 144.294 11.1288 145.152 26.7017 -9.19239 -9.89204 42.2133 -2.79021 -5.01769 4.44874 -7.74942 3.58114 29.859 -1.7467e-015 90 -4.82786 0.617171 -9.59625 -100.608 -9.24994 4.7405 13.2848 -5.74129 -7.13912 34.2162 4.9115 35.909 14.815 16.9375 15.0957 -30.6627 27.4584 -46.3832 23.6904 -6.58016 -3.54465 65.2929 7.79926 -54.8933 1.47758 -6.16068 -2.41079 1.59028e-015 3.18055e-015 3.18055e-015 2.82533 14.5514 -1.66533e-015 4.99157 -1.55301e-016 -16.9584 7.87756 -4.26326e-014 0 19.1217 -3.18055e-015 0.0191441 6.52588 1.42109e-014 -7.10543e-015 -0 0 16.4555 -9.30511 7.998 11.2048 -6.8505 -4.18474e-016 -90 0 3.43472 -7.10543e-015 -8.69683e-017 0 -0 -9.30514 7.99801 -11.2048 173.149 4.18474e-016 -90 0 -3.78877 0 9.31803e-017 7.95139e-016 -4.96962e-017 
0 0 0 0 0 -0 0.0192527 60.0314 -42.9847 -0.678402 11.4001 90.8806 -4.17886 0.0427037 9.59625 -57.8461 61.2999 -67.9538 16.1374 -1.04725e-006 1.65063e-006 -26.8707 11.3479 79.3923 27.0969 1.42109e-014 -5.68434e-014 5.01609e-015 2.24409e-015 -58.546 24.8414 7.10543e-015 7.10543e-015 0.0357714 0.0233979 -52.4633 6.77858 -7.10543e-015 -1.42109e-014 1.89576e-022 -9.47879e-023 6.36111e-015 -19.6425 -0.101511 -0.0652874 0.255391 0.0366232 1.86194 -19.4612 1.53145 0.697993 -1.43163 -0.208779 1.85569 -18.1967 5.15376 -0.610235 -17.7068 0.710924 -3.2663 -17.2876 8.09634 -0.193248 -17.1489 0.563663 -1.00916 -19.144 8.35871 -2.66454e-014 -16.6153 -1.39101e-015 3.16679 -16.3943 7.24542 2.57572e-014 -23.8429 -0.0765665 -1.2921e-014 -19.3877 2.40349 -2.88658e-014 3.26212 7.15625e-015 -1.7248 -13.796 -11.6756 2.84217e-014 -12.9302 1.98785e-016 1.49089e-016 -15.825 14.8229 15.3879 90.9374 7.37471 -23.3328 6.55118 1.98952e-013 1.42109e-014 -7.71366e-009 -7.59931 2.05853 6.73503 2.84217e-014 -4.9738e-014 0 0 -0 1.34858 -27.5886 -1.28786e-014 92.7985 1.31198e-014 -1.64991e-014 -15.825 14.8229 -15.3879 -14.8222 2.85467 -6.13959 -2.40814 5.46468 -2.69372 -7.71367e-009 -7.59931 2.05853 -2.40922 6.0083 -1.85921 -6.21202e-017 -7.95139e-016 4.96962e-016 4.72477 -9.87974 -1.33227e-015 92.7985 3.50417e-015 -90 4.96118 -0.690234 1.45871 -180 7.01671e-015 -180 0 2.84217e-014 -14.9226 -1.98785e-016 -3.18055e-015 -0 4.44089e-016 2.84217e-014 3.94939 -0 -3.18055e-015 -0 4.44089e-016 -2.84217e-014 15.0019 -0 -3.18055e-015 -0 -4.16352 -0.485088 1.4795 -0 -3.18055e-015 -0 9.35075e-005 -0.000392738 14.9226 -0 -3.18055e-015 -0 6.0207 -9.81639 -2.66454e-015 112.799 3.23426e-015 -90 3.38327 -0.728579 2.22495 180 6.59355e-015 160 3.55271e-015 -2.84217e-014 -14.9599 1.59028e-015 0 -1.59028e-015 2.22045e-015 -0.0431035 3.99141 -3.97569e-016 -3.18055e-015 -0 0 -2.84217e-014 14.9599 -1.98785e-016 0 -1.98785e-016 -2.08724 0.559133 2.49549 -1.15763e-015 -3.18055e-015 -20 -3.55271e-015 -2.84217e-014 14.9599 1.59028e-015 3.18055e-015 -4.77083e-015 -7.85698 -6.72885 9.63956 34.106 19.9417 85.9622 -7.85684 -6.72882 -9.63956 -145.894 19.9417 85.9622 -2.64486 -4.58875 6.72564 26.8199 26.2605 -112.654 21.051 -8.52706e-006 6.36515e-006 127.615 -68.2344 -167.619 33.1145 8.3753e-007 -2.8019e-007 133.486 7.01671e-015 180 29.9221 1.42109e-014 -7.10543e-015 1.76995 3.45573 1.35559 9.62649 1.42109e-014 3.55271e-015 29.859 -1.7467e-015 90 2.33257 -3.84553 -6.72564 -27.5978 9.37252 -17.983 1.16529 -12.7157 -16.7361 86.7725 -52.021 121.964 16.2308 -5.97551 28.2387 143.486 9.88681 149.584 26.7017 -9.19239 -9.89204 41.6418 -8.30623 -8.18609 4.44874 -7.74942 3.58114 29.859 -1.7467e-015 90 -5.24325 1.06268 -9.59625 -105.128 -9.24999 4.74057 13.2848 -5.74129 -7.13912 33.6032 5.72316 35.83 14.815 16.9375 15.0957 -31.0517 27.7258 -46.2033 23.6904 -6.58016 -3.54465 64.7913 7.5893 -55.0246 1.47758 -6.16068 -2.41079 -5.29669e-031 9.54166e-015 3.18055e-015 2.82533 14.5514 -1.21014e-014 4.99157 1.49089e-016 -18.892 7.87756 -2.84217e-014 -7.10543e-015 19.1217 -4.77083e-015 -0.840213 6.52588 0 -1.06581e-014 3.29117e-015 0 14.8967 -9.30511 7.998 11.2048 -6.8505 -4.18474e-016 -90 0 3.14398 0 1.2424e-017 0 -1.98785e-016 -9.30514 7.99801 -11.2048 173.149 4.18474e-016 -90 0 -4.24179 0 6.21202e-017 7.95139e-016 -9.93923e-017 
0 0 0 0 0 -0 0.0188155 60.278 -42.9655 -0.867662 11.4096 91.5688 -3.8454 -0.206246 9.59625 -54.7541 61.3011 -67.9504 16.1374 -1.02332e-006 1.66211e-006 -27.0886 11.9273 77.2624 27.0969 1.77636e-014 -4.9738e-014 4.96164e-015 2.23012e-015 -53.9314 24.8414 3.55271e-015 3.55271e-014 0.0999554 0.0573079 -58.0153 6.77858 -7.10543e-015 -1.42109e-014 7.76503e-019 0 -0 -19.659 -0.282523 -0.270572 0.776751 -0.0995552 0.988614 -19.4608 1.59055 0.71663 -1.41147 -0.235372 1.9752 -18.1746 5.0793 -0.595077 -17.7304 0.65382 -3.19393 -17.199 8.19522 -0.189815 -17.6838 0.550259 -0.990424 -19.144 8.35871 -2.62013e-014 -16.6153 -1.40924e-015 3.05988 -16.3943 7.24542 2.68674e-014 -23.8429 -0.0765665 -1.2921e-014 -19.3877 2.40349 -3.01981e-014 3.26212 7.15625e-015 -1.37429 -13.796 -11.6756 2.93099e-014 -12.9302 3.97569e-016 -0 -15.825 14.8229 15.3879 90.9374 7.37471 -23.3328 6.55118 1.7053e-013 4.26326e-014 -7.71366e-009 -7.59931 2.05853 6.73503 5.68434e-014 -5.32907e-014 -0 -1.59028e-015 -0 1.34858 -27.5886 -1.37668e-014 92.7985 1.27222e-014 -1.63003e-014 -15.825 14.8229 -15.3879 -14.8222 2.85467 -6.13959 -2.40814 5.46468 -2.69372 -7.71367e-009 -7.59931 2.05853 -2.40922 6.0083 -1.85921 3.72721e-017 -7.95139e-016 -5.35787e-016 4.72477 -9.87974 -8.88178e-016 92.7985 3.50417e-015 -90 4.96118 -0.690234 1.45871 -180 7.01671e-015 180 8.88178e-016 2.84217e-014 -14.9226 -9.93923e-017 3.18055e-015 1.98785e-016 8.88178e-016 0 3.94939 2.98177e-016 0 1.98785e-016 4.44089e-016 0 15.0019 0 0 -1.98785e-016 -4.16352 -0.485088 1.4795 2.98177e-016 0 1.98785e-016 9.35075e-005 -0.000392738 14.9226 0 0 -1.98785e-016 6.0207 -9.81639 -4.44089e-016 112.799 3.23426e-015 -90 3.38327 -0.728579 2.22495 -180 6.59355e-015 160 0 0 -14.9599 1.59028e-015 6.36111e-015 -0 -4.44089e-016 -0.0431035 3.99141 -5.96354e-016 9.54166e-015 1.98785e-016 -8.88178e-016 2.84217e-014 14.9599 -3.97569e-016 9.54166e-015 3.97569e-016 -2.08724 0.559133 2.49549 4.5423e-015 3.18055e-015 -20 -3.55271e-015 0 14.9599 3.18055e-015 3.18055e-015 3.18055e-015 -7.85698 -6.72885 9.63956 34.106 19.9417 85.9622 -7.85684 -6.72882 -9.63956 -145.894 19.9417 85.9622 -2.49607 -4.59315 6.72564 27.4347 26.2606 -112.654 21.051 -8.49131e-006 6.1529e-006 111.937 -68.7777 177.73 33.1145 8.3753e-007 -2.8019e-007 124.726 7.01671e-015 180 29.9221 -7.10543e-015 -7.10543e-015 -0.634751 3.40924 1.31391 9.62649 2.13163e-014 7.10543e-015 29.859 -1.7467e-015 90 2.33257 -3.84553 -6.72564 -27.5978 9.37252 -17.983 1.16529 -12.7157 -16.7361 88.058 -51.9359 121.786 16.2308 -5.97551 28.2387 142.571 8.1611 155.393 26.7017 -9.19239 -9.89204 40.7849 -14.222 -11.8157 4.44874 -7.74942 3.58114 29.859 -1.7467e-015 90 -5.64347 1.56886 -9.59625 -109.934 -9.25073 4.74035 13.2848 -5.74129 -7.13912 31.4359 6.81416 36.1051 14.815 16.9375 15.0957 -29.795 26.8522 -46.778 23.6904 -6.58016 -3.54465 63.5491 7.34915 -55.1319 1.47758 -6.16068 -2.41079 3.18055e-015 3.18055e-015 -1.59028e-015 2.82533 14.5514 2.22045e-015 4.99157 2.48481e-016 -20.4354 7.87756 -1.42109e-014 -1.06581e-014 19.1217 0 -1.72178 6.52588 0 -7.10543e-015 -0 0 13.0106 -9.30511 7.998 11.2048 -6.8505 -4.18474e-016 -90 0 2.83452 -7.10543e-015 -2.73329e-016 -1.59028e-015 3.97569e-016 -9.30514 7.99801 -11.2048 173.149 4.18474e-016 -90 3.55271e-015 -4.72174 0 -2.48481e-017 -1.59028e-015 -0 
